<?xml version="1.0" encoding="UTF-8" standalone="no"?>
<!-- Created with Inkscape (http://www.inkscape.org/) -->
<svg
   xmlns:dc="http://purl.org/dc/elements/1.1/"
   xmlns:cc="http://creativecommons.org/ns#"
   xmlns:rdf="http://www.w3.org/1999/02/22-rdf-syntax-ns#"
   xmlns:svg="http://www.w3.org/2000/svg"
   xmlns="http://www.w3.org/2000/svg"
   xmlns:sodipodi="http://sodipodi.sourceforge.net/DTD/sodipodi-0.dtd"
   xmlns:inkscape="http://www.inkscape.org/namespaces/inkscape"
   version="1.0"
   width="362pt"
   height="116pt"
   viewBox="0 0 362 116"
   id="svg2"
   sodipodi:version="0.32"
   inkscape:version="0.46"
   sodipodi:docname="Dalia_Grybauskaitė.Signature.svg"
   inkscape:output_extension="org.inkscape.output.svg.inkscape">
  <metadata
     id="metadata11">
    <rdf:RDF>
      <cc:Work
         rdf:about="">
        <dc:format>image/svg+xml</dc:format>
        <dc:type
           rdf:resource="http://purl.org/dc/dcmitype/StillImage" />
      </cc:Work>
    </rdf:RDF>
  </metadata>
  <sodipodi:namedview
     inkscape:window-height="904"
     inkscape:window-width="1280"
     inkscape:pageshadow="2"
     inkscape:pageopacity="0.0"
     guidetolerance="10.0"
     gridtolerance="10.0"
     objecttolerance="10.0"
     borderopacity="1.0"
     bordercolor="#666666"
     pagecolor="#ffffff"
     id="base"
     showgrid="false"
     inkscape:zoom="3.4003632"
     inkscape:cx="144.0608"
     inkscape:cy="75.278671"
     inkscape:window-x="-4"
     inkscape:window-y="-4"
     inkscape:current-layer="svg2" />
  <defs
     id="defs21">
    <inkscape:perspective
       sodipodi:type="inkscape:persp3d"
       inkscape:vp_x="0 : 72.5 : 1"
       inkscape:vp_y="0 : 1000 : 0"
       inkscape:vp_z="452.5 : 72.5 : 1"
       inkscape:persp3d-origin="226.25 : 48.333333 : 1"
       id="perspective13" />
  </defs>
  <path
     style="fill: rgb(0, 0, 0);"
     d="M 116.78125 5.75 C 110.171 5.8321045 103.54531 6.3484375 97.0625 6.90625 C 92.75 7.69375 86.993752 7.8312496 84.71875 12.28125 C 82.95625 17.39375 85.543752 22.712499 87.78125 27.25 C 92.21875 35.4125 96.9875 43.418748 101.75 51.40625 C 82.5125 56.71875 63.156252 61.6 43.71875 66.125 C 46.50625 66.2125 49.287499 66.200003 52.0625 66 C 54.0875 65.3 56.212501 64.8375 58.3125 64.4375 C 73.1875 61.5875 87.643748 57 102.40625 53.625 C 102.79375 54.3125 103.56875 55.656252 103.96875 56.34375 C 99.01875 57.80625 93.012497 57.656252 89 60.96875 C 94.4625 61.61875 99.699997 59.456252 105 58.53125 C 109.7 69.94375 111.2375 82.887497 107.5625 94.8125 C 104.625 105.525 96.6125 114.15 87.1875 119.6875 C 75.075 129.925 59.737501 135.275 47.3125 145 L 53.375 145 C 59.725 142.5125 64.556252 137.53126 70.34375 134.09375 C 76.10625 130.14375 82.731248 127.525 88.09375 123 C 95.23125 117.4125 102.41875 111.48125 107.09375 103.59375 C 110.41875 96.23125 111.825 88.068748 111.9375 80.03125 C 112.05 72.34375 109.39375 65.056252 107.34375 57.78125 C 115.59375 55.38125 124.725 54.993752 131.875 49.71875 C 131.55 48.75625 131.2375 47.825001 130.9375 46.875 C 121.25 47.0125 114.6125 55.837499 104.8125 55.75 C 105.025 54.85 105.4625 53.056248 105.6875 52.15625 C 119.125 48.81875 131.98126 43.187501 144.15625 36.625 C 149.73125 32.9625 157.2875 28.85 157.375 21.25 C 157.9625 16.15 153.10624 12.80625 149.03125 10.96875 C 138.77344 6.703125 127.79834 5.6131592 116.78125 5.75 z M 118.59375 7.625 C 124.49011 7.5582274 130.375 7.8359375 136.25 8.28125 C 140.8875 8.6312496 144.9625 11.14375 148.9375 13.34375 C 152.1375 15.21875 155.64375 18.375 154.90625 22.5 C 153.29376 27.8875 148.65625 31.625 143.90625 34.25 C 132.24376 41.462499 119.125 45.775 106.1875 50.0625 C 103.975 51.325001 102.85 48.5625 101.8125 47.1875 C 96.999997 38.612501 91.2 30.4625 87.9375 21.125 C 87.299997 18.225001 86.1875 14.65 88.0625 12 C 94.337497 9.2875002 101.2625 8.76875 108 8.15625 C 111.52969 7.8281249 115.05593 7.6650635 118.59375 7.625 z "
     transform="scale(0.8,0.8)"
     id="path6" />
  <path
     d="M 220.91,45.8 C 230.57,45.31 239.63,41.41 249.25,40.59 C 250.04,42.37 250.79,44.17 251.51,45.99 C 257.06,48.18 262.98,46.17 268.59,45.38 C 276.4,44.28 283.89,41.13 291.86,41.22 C 296.53,41.58 298.29,46.75 302.09,48.65 C 310.12,50.85 318.34,48.31 326.39,47.55 C 330.54,47.26 334.73,45.16 338.87,46.17 C 338.75,46.29 338.52,46.53 338.4,46.65 C 328.86,48.02 319.53,50.59 309.92,51.52 C 306.76,51.87 303.49,51.71 300.47,50.66 C 297.29,49.27 296.19,45.59 293.54,43.56 C 291.89,42.48 289.82,42.71 287.95,42.74 C 277.36,43.49 267.56,48.42 256.97,49.17 C 254.5,49.19 251.38,49.6 249.66,47.4 C 248.81,45.91 248.44,44.21 247.91,42.6 C 238.93,42.21 230.81,46.8 222.05,47.86 C 220,48.23 218.01,47.53 216.07,47 C 216,46.23 215.87,44.67 215.8,43.89 C 207.07,43.28 199.34,47.84 191.2,50.17 C 186.7,51.43 181.62,54.22 177.06,51.96 C 175.55,50.79 177.81,49.69 178.31,48.66 C 177.98,48.31 177.31,47.61 176.98,47.26 C 178.23,46.93 179.48,46.91 180.73,47.23 C 181.48,48.67 179.84,49.83 179.31,51.05 C 190.71,50.25 200.83,44.43 211.91,42.21 C 213.48,41.97 215.17,41.72 216.72,42.26 C 218.07,43.49 218.55,46.36 220.91,45.8 z"
     id="path10"
     style="fill: rgb(0, 0, 0);" />
  <path
     d="M 340.13,45.41 C 344.01,44.43 348.06,44.32 352.02,44.8 C 352.03,45.58 352.04,47.14 352.05,47.91 C 348.06,52.02 343.15,55.04 339.01,58.98 C 337.33,60.6 335.43,62.03 333.16,62.68 C 335.28,58.8 338.34,55.42 342.19,53.2 C 345.32,51.46 347.86,48.88 350.04,46.07 C 346.82,45.77 342.94,47.07 340.13,45.41 z"
     id="path12"
     style="fill: rgb(0, 0, 0);" />
  <path
     d="M 47.08,52.71 C 55.04,51.97 62.69,49.53 70.56,48.25 C 70.24,48.76 69.59,49.77 69.26,50.27 C 58.15,52.12 47.2,54.88 36,56.19 C 31.53,56.87 26.73,57.41 22.59,55.12 C 26.34,52.57 31.17,52.5 35.38,53.8 C 39.34,54.45 43.16,52.92 47.08,52.71 z"
     id="path14"
     style="fill: rgb(0, 0, 0);" />
  <path
     d="M 163.15,51.2 C 167.05,50.34 170.76,47.81 174.81,48.2 C 174.77,48.35 174.69,48.67 174.65,48.83 C 167.73,50.83 160.82,52.87 153.87,54.79 C 147.05,57.59 139.26,59.6 132.11,56.75 C 126.55,59.3 120.92,61.71 115.55,64.62 C 111.87,66.91 108.05,68.95 104.12,70.75 C 107.95,68.42 111.89,66.27 115.74,63.96 C 121.22,60.61 127.5,58.67 132.65,54.75 C 134.3,53.42 136.15,52.39 138.16,51.72 C 138.3,53.67 136.97,54.95 135.61,56.08 C 145.15,58.15 154.09,53.31 163.15,51.2 z"
     id="path16"
     style="fill: rgb(0, 0, 0);" />
</svg>
